<svg xmlns="http://www.w3.org/2000/svg" xmlns:xlink="http://www.w3.org/1999/xlink" version="1.1" font-family="sans-serif, droid-sans, helvetica, verdana, tahoma" viewBox="0 0 600 787" width="600" height="787" preserveAspectRatio="xMinYMin meet"><g stroke="#757575" stroke-width="1"><line x1="341" y1="64" x2="341" y2="749"></line><line x1="341" y1="748" x2="586" y2="748"></line></g><text x="585" y="59" font-size="8" fill="#065695" text-anchor="end" font-weight="bold">Phoronix Test Suite 10.8.4</text><polygon points="350,56 341,61 341,51" fill="#065695" stroke="#949494" stroke-width="1"></polygon><text x="353" y="59" font-size="8" font-weight="bold" fill="#065695" text-anchor="start">Frames Per Second, More Is Better</text><a xlink:href="https://openbenchmarking.org/test/pts/aom-av1" target="_blank"><text x="6" y="19" font-size="17" fill="#231f20" text-anchor="start" font-weight="bold">AOM AV1 3.7</text></a><text x="6" y="36" font-size="11" font-weight="bold" fill="#231f20" text-anchor="start">Encoder Mode: Speed 6 Two-Pass - Input: Bosphorus 4K</text><path d="m74 22v9m-5-16v16m-5-28v28m-23-2h12.5c2.485281 0 4.5-2.014719 4.5-4.5s-2.014719-4.5-4.5-4.5h-8c-2.485281 0-4.5-2.014719-4.5-4.5s2.014719-4.5 4.5-4.5h12.5m-21 5h-11m11 13h-2c-4.970563 0-9-4.029437-9-9v-20m-24 40v-20c0-4.970563 4.0294373-9 9-9 4.970563 0 9 4.029437 9 9s-4.029437 9-9 9h-9" stroke="#231f20" stroke-width="4" fill="none" transform="translate(508,4)"></path><line x1="341" y1="100" x2="341" y2="717" stroke="#757575" stroke-width="11" stroke-dasharray="1,35"></line><g font-size="11" fill="#231f20" font-weight="bold" text-anchor="end"><text y="80" x="336">base</text><text y="116" x="336">fcheck-div-rem-overflow</text><text y="152" x="336">fconstrain-shift-value</text><text y="188" x="336">fdrop-align-attr</text><text y="224" x="336">fdrop-deref-attr</text><text y="260" x="336">fdrop-inbounds-from-gep-mllvm-disable-oob-analysis</text><text y="296" x="336">fdrop-noalias-restrict-attr</text><text y="332" x="336">fdrop-ub-builtins</text><text y="368" x="336">fignore-pure-const-attrs</text><text y="404" x="336">fno-constrain-bool-value</text><text y="440" x="336">fno-delete-null-pointer-checks</text><text y="476" x="336">fno-finite-loops</text><text y="512" x="336">fno-strict-aliasing</text><text y="548" x="336">fno-use-default-alignment</text><text y="584" x="336">fstrict-enums</text><text y="620" x="336">fwrapv</text><text y="656" x="336">mllvm-disable-object-based-analysis</text><text y="692" x="336">mllvm-zero-uninit-loads</text><text y="728" x="336">Xclang-no-enable-noundef-analysis</text></g><g font-size="10" fill="#065695" text-anchor="middle"><text x="384" y="763">3</text><text x="425" y="763">6</text><text x="466" y="763">9</text><text x="507" y="763">12</text><text x="548" y="763">15</text></g><g stroke="#BABABA" stroke-width="1"><line x1="384" y1="64" x2="384" y2="743" stroke-dasharray="5,5"></line><line x1="384" y1="744" x2="384" y2="753"></line><line x1="425" y1="64" x2="425" y2="743" stroke-dasharray="5,5"></line><line x1="425" y1="744" x2="425" y2="753"></line><line x1="466" y1="64" x2="466" y2="743" stroke-dasharray="5,5"></line><line x1="466" y1="744" x2="466" y2="753"></line><line x1="507" y1="64" x2="507" y2="743" stroke-dasharray="5,5"></line><line x1="507" y1="744" x2="507" y2="753"></line><line x1="548" y1="64" x2="548" y2="743" stroke-dasharray="5,5"></line><line x1="548" y1="744" x2="548" y2="753"></line></g><g stroke="#949494" stroke-width="2"><line x1="443" y1="82" x2="496" y2="82"></line><line x1="443" y1="70" x2="443" y2="94"></line><line x1="496" y1="70" x2="496" y2="94"></line><line x1="465" y1="118" x2="499" y2="118"></line><line x1="465" y1="106" x2="465" y2="130"></line><line x1="499" y1="106" x2="499" y2="130"></line><line x1="491" y1="154" x2="500" y2="154"></line><line x1="491" y1="142" x2="491" y2="166"></line><line x1="500" y1="142" x2="500" y2="166"></line><line x1="482" y1="190" x2="487" y2="190"></line><line x1="482" y1="178" x2="482" y2="202"></line><line x1="487" y1="178" x2="487" y2="202"></line><line x1="495" y1="226" x2="499" y2="226"></line><line x1="495" y1="214" x2="495" y2="238"></line><line x1="499" y1="214" x2="499" y2="238"></line><line x1="444" y1="262" x2="509" y2="262"></line><line x1="444" y1="250" x2="444" y2="274"></line><line x1="509" y1="250" x2="509" y2="274"></line><line x1="460" y1="298" x2="503" y2="298"></line><line x1="460" y1="286" x2="460" y2="310"></line><line x1="503" y1="286" x2="503" y2="310"></line><line x1="475" y1="334" x2="501" y2="334"></line><line x1="475" y1="322" x2="475" y2="346"></line><line x1="501" y1="322" x2="501" y2="346"></line><line x1="424" y1="370" x2="512" y2="370"></line><line x1="424" y1="358" x2="424" y2="382"></line><line x1="512" y1="358" x2="512" y2="382"></line><line x1="461" y1="406" x2="500" y2="406"></line><line x1="461" y1="394" x2="461" y2="418"></line><line x1="500" y1="394" x2="500" y2="418"></line><line x1="461" y1="442" x2="512" y2="442"></line><line x1="461" y1="430" x2="461" y2="454"></line><line x1="512" y1="430" x2="512" y2="454"></line><line x1="443" y1="478" x2="499" y2="478"></line><line x1="443" y1="466" x2="443" y2="490"></line><line x1="499" y1="466" x2="499" y2="490"></line><line x1="470" y1="514" x2="500" y2="514"></line><line x1="470" y1="502" x2="470" y2="526"></line><line x1="500" y1="502" x2="500" y2="526"></line><line x1="472" y1="550" x2="512" y2="550"></line><line x1="472" y1="538" x2="472" y2="562"></line><line x1="512" y1="538" x2="512" y2="562"></line><line x1="425" y1="586" x2="498" y2="586"></line><line x1="425" y1="574" x2="425" y2="598"></line><line x1="498" y1="574" x2="498" y2="598"></line><line x1="427" y1="622" x2="499" y2="622"></line><line x1="427" y1="610" x2="427" y2="634"></line><line x1="499" y1="610" x2="499" y2="634"></line><line x1="495" y1="658" x2="499" y2="658"></line><line x1="495" y1="646" x2="495" y2="670"></line><line x1="499" y1="646" x2="499" y2="670"></line><line x1="430" y1="694" x2="501" y2="694"></line><line x1="430" y1="682" x2="430" y2="706"></line><line x1="501" y1="682" x2="501" y2="706"></line><line x1="471" y1="730" x2="502" y2="730"></line><line x1="471" y1="718" x2="471" y2="742"></line><line x1="502" y1="718" x2="502" y2="742"></line></g><g stroke="#949494" stroke-width="1"><rect x="473" y="70" width="22" height="24" fill="#2196f3"></rect><rect x="470" y="106" width="27" height="24" fill="#2196f3"></rect><rect x="496" y="142" width="2" height="24" fill="#2196f3"></rect><rect x="482" y="178" width="5" height="24" fill="#2196f3"></rect><rect x="495" y="214" width="4" height="24" fill="#2196f3"></rect><rect x="484" y="250" width="20" height="24" fill="#2196f3"></rect><rect x="483" y="286" width="17" height="24" fill="#2196f3"></rect><rect x="481" y="322" width="16" height="24" fill="#2196f3"></rect><rect x="479" y="358" width="30" height="24" fill="#2196f3"></rect><rect x="493" y="394" width="5" height="24" fill="#2196f3"></rect><rect x="491" y="430" width="18" height="24" fill="#2196f3"></rect><rect x="466" y="466" width="31" height="24" fill="#2196f3"></rect><rect x="477" y="502" width="17" height="24" fill="#2196f3"></rect><rect x="488" y="538" width="23" height="24" fill="#2196f3"></rect><rect x="481" y="574" width="13" height="24" fill="#2196f3"></rect><rect x="468" y="610" width="29" height="24" fill="#2196f3"></rect><rect x="495" y="646" width="4" height="24" fill="#2196f3"></rect><rect x="483" y="682" width="17" height="24" fill="#2196f3"></rect><rect x="483" y="718" width="16" height="24" fill="#2196f3"></rect></g><g stroke="#231f20" stroke-width="1"><line x1="488" y1="70" x2="488" y2="94"></line><line x1="494" y1="106" x2="494" y2="130"></line><line x1="496" y1="142" x2="496" y2="166"></line><line x1="484" y1="178" x2="484" y2="202"></line><line x1="498" y1="214" x2="498" y2="238"></line><line x1="496" y1="250" x2="496" y2="274"></line><line x1="496" y1="286" x2="496" y2="310"></line><line x1="496" y1="322" x2="496" y2="346"></line><line x1="507" y1="358" x2="507" y2="382"></line><line x1="495" y1="394" x2="495" y2="418"></line><line x1="505" y1="430" x2="505" y2="454"></line><line x1="484" y1="466" x2="484" y2="490"></line><line x1="484" y1="502" x2="484" y2="526"></line><line x1="499" y1="538" x2="499" y2="562"></line><line x1="486" y1="574" x2="486" y2="598"></line><line x1="490" y1="610" x2="490" y2="634"></line><line x1="497" y1="646" x2="497" y2="670"></line><line x1="495" y1="682" x2="495" y2="706"></line><line x1="497" y1="718" x2="497" y2="742"></line></g><g font-size="8" fill="#065695" text-anchor="end"><text x="336" y="96">Min: 7.49 / Avg: 10.23 / Max: 11.47</text><text x="336" y="132">Min: 9.16 / Avg: 10.77 / Max: 11.68</text><text x="336" y="168">Min: 11.05 / Avg: 11.47 / Max: 11.76</text><text x="336" y="204">Min: 10.43 / Avg: 10.59 / Max: 10.8</text><text x="336" y="240">Min: 11.36 / Avg: 11.54 / Max: 11.66</text><text x="336" y="276">Min: 7.61 / Avg: 10.9 / Max: 12.36</text><text x="336" y="312">Min: 8.76 / Avg: 10.98 / Max: 11.94</text><text x="336" y="348">Min: 9.85 / Avg: 11.04 / Max: 11.8</text><text x="336" y="384">Min: 6.1 / Avg: 10.82 / Max: 12.58</text><text x="336" y="420">Min: 8.86 / Avg: 11.12 / Max: 11.71</text><text x="336" y="456">Min: 8.83 / Avg: 11.63 / Max: 12.58</text><text x="336" y="492">Min: 7.54 / Avg: 10.31 / Max: 11.68</text><text x="336" y="528">Min: 9.51 / Avg: 10.64 / Max: 11.74</text><text x="336" y="564">Min: 9.63 / Avg: 11.57 / Max: 12.62</text><text x="336" y="600">Min: 6.16 / Avg: 10.45 / Max: 11.59</text><text x="336" y="636">Min: 6.32 / Avg: 10.15 / Max: 11.65</text><text x="336" y="672">Min: 11.37 / Avg: 11.51 / Max: 11.66</text><text x="336" y="708">Min: 6.59 / Avg: 10.6 / Max: 11.8</text><text x="336" y="744">Min: 9.62 / Avg: 11.09 / Max: 11.85</text></g><g fill="#231f20"></g><line x1="341" y1="748" x2="585" y2="748" stroke="#757575" stroke-width="1"></line></svg>