<svg xmlns="http://www.w3.org/2000/svg" xmlns:xlink="http://www.w3.org/1999/xlink" version="1.1" font-family="sans-serif, droid-sans, helvetica, verdana, tahoma" viewBox="0 0 600 287" width="600" height="287" preserveAspectRatio="xMinYMin meet"><g stroke="#757575" stroke-width="1"><line x1="263" y1="64" x2="263" y2="249"></line><line x1="263" y1="248" x2="586" y2="248"></line></g><text x="585" y="59" font-size="8" fill="#065695" text-anchor="end" font-weight="bold">Phoronix Test Suite 10.8.4</text><polygon points="272,56 263,61 263,51" fill="#065695" stroke="#949494" stroke-width="1"></polygon><text x="275" y="59" font-size="8" font-weight="bold" fill="#065695" text-anchor="start">Frames Per Second, More Is Better</text><a xlink:href="https://openbenchmarking.org/test/pts/aom-av1" target="_blank"><text x="6" y="19" font-size="17" fill="#231f20" text-anchor="start" font-weight="bold">AOM AV1 3.7</text></a><text x="6" y="36" font-size="11" font-weight="bold" fill="#231f20" text-anchor="start">Encoder Mode: Speed 11 Realtime - Input: Bosphorus 4K</text><path d="m74 22v9m-5-16v16m-5-28v28m-23-2h12.5c2.485281 0 4.5-2.014719 4.5-4.5s-2.014719-4.5-4.5-4.5h-8c-2.485281 0-4.5-2.014719-4.5-4.5s2.014719-4.5 4.5-4.5h12.5m-21 5h-11m11 13h-2c-4.970563 0-9-4.029437-9-9v-20m-24 40v-20c0-4.970563 4.0294373-9 9-9 4.970563 0 9 4.029437 9 9s-4.029437 9-9 9h-9" stroke="#231f20" stroke-width="4" fill="none" transform="translate(508,4)"></path><line x1="263" y1="110" x2="263" y2="237" stroke="#757575" stroke-width="11" stroke-dasharray="1,45"></line><g font-size="11" fill="#231f20" font-weight="bold" text-anchor="end"><text y="85" x="258">aom-av1-3.7.0-base-3.00Ghz</text><text y="131" x="258">aom-av1-3.7.0-base-numactl-1.50ghz</text><text y="177" x="258">aom-av1-3.7.0-base-numactl-1.00ghz</text><text y="223" x="258">aom-av1-3.7.0-base-numactl-2.00ghz</text></g><g font-size="10" fill="#065695" text-anchor="middle"><text x="319" y="263">8</text><text x="373" y="263">16</text><text x="427" y="263">24</text><text x="481" y="263">32</text><text x="535" y="263">40</text></g><g stroke="#BABABA" stroke-width="1"><line x1="319" y1="64" x2="319" y2="243" stroke-dasharray="5,5"></line><line x1="319" y1="244" x2="319" y2="253"></line><line x1="373" y1="64" x2="373" y2="243" stroke-dasharray="5,5"></line><line x1="373" y1="244" x2="373" y2="253"></line><line x1="427" y1="64" x2="427" y2="243" stroke-dasharray="5,5"></line><line x1="427" y1="244" x2="427" y2="253"></line><line x1="481" y1="64" x2="481" y2="243" stroke-dasharray="5,5"></line><line x1="481" y1="244" x2="481" y2="253"></line><line x1="535" y1="64" x2="535" y2="243" stroke-dasharray="5,5"></line><line x1="535" y1="244" x2="535" y2="253"></line></g><g stroke="#949494" stroke-width="2"><line x1="431" y1="87" x2="524" y2="87"></line><line x1="431" y1="70" x2="431" y2="104"></line><line x1="524" y1="70" x2="524" y2="104"></line><line x1="455" y1="133" x2="483" y2="133"></line><line x1="455" y1="116" x2="455" y2="150"></line><line x1="483" y1="116" x2="483" y2="150"></line><line x1="424" y1="179" x2="426" y2="179"></line><line x1="424" y1="162" x2="424" y2="196"></line><line x1="426" y1="162" x2="426" y2="196"></line><line x1="514" y1="225" x2="521" y2="225"></line><line x1="514" y1="208" x2="514" y2="242"></line><line x1="521" y1="208" x2="521" y2="242"></line></g><g stroke="#949494" stroke-width="1"><rect x="473" y="70" width="29" height="34" fill="#2196f3"></rect><rect x="457" y="116" width="23" height="34" fill="#2196f3"></rect><rect x="424" y="162" width="2" height="34" fill="#2196f3"></rect><rect x="514" y="208" width="7" height="34" fill="#2196f3"></rect></g><g stroke="#231f20" stroke-width="1"><line x1="493" y1="70" x2="493" y2="104"></line><line x1="465" y1="116" x2="465" y2="150"></line><line x1="426" y1="162" x2="426" y2="196"></line><line x1="520" y1="208" x2="520" y2="242"></line></g><g font-size="8" fill="#065695" text-anchor="end"><text x="258" y="104">Min: 25.09 / Avg: 32.96 / Max: 38.9</text><text x="258" y="150">Min: 28.69 / Avg: 30.62 / Max: 32.76</text><text x="258" y="196">Min: 24.05 / Avg: 24.22 / Max: 24.31</text><text x="258" y="242">Min: 37.43 / Avg: 38.06 / Max: 38.43</text></g><g fill="#231f20"></g><line x1="263" y1="248" x2="585" y2="248" stroke="#757575" stroke-width="1"></line></svg>
